<svg id="Gruppe_36" data-name="Gruppe 36" xmlns="http://www.w3.org/2000/svg" xmlns:xlink="http://www.w3.org/1999/xlink" width="70.799" height="55.777" viewBox="0 0 70.799 55.777">
  <defs>
    <clipPath id="clip-path">
      <rect id="Rechteck_78" data-name="Rechteck 78" width="70.799" height="55.777" fill="none"/>
    </clipPath>
  </defs>
  <g id="Gruppe_35" data-name="Gruppe 35" clip-path="url(#clip-path)">
    <path id="Pfad_212" data-name="Pfad 212" d="M.679,55.722c-.046-.086-.632.111-.672.037s.092-.146.476-.389S1.53,54.75,2.6,54.164c5.252-2.746,10.6-5.359,16.069-7.734a179.4,179.4,0,0,1,16.785-6.407c2.865-.926,5.771-1.766,8.7-2.5l1.1-.286,1.108-.254c.369-.083.736-.174,1.108-.251l1.114-.234c.372-.08.744-.154,1.117-.226l1.12-.214c.75-.131,1.5-.272,2.251-.386,1.5-.243,3.018-.449,4.536-.612q1.14-.126,2.277-.223c.756-.063,1.515-.12,2.251-.174l.545-.043.268-.02h.263l.254-.026h.124l.113-.014.222-.029.113-.017H64.1a.516.516,0,0,0,.159-.051.205.205,0,0,0,.115-.109.063.063,0,0,0,0-.04h-.035l-.069-.046c-.038-.02-.075-.043-.113-.06l-.47-.234-.733-.337A29.135,29.135,0,0,0,59.86,32.5a47.306,47.306,0,0,0-6.637-1.475c-2.268-.352-4.573-.572-6.9-.74s-4.657-.231-7-.246-4.692.023-7.043.109-4.709.211-7.087.357l-1.806.1c-.309.017-.615.031-.955.04h-.421l-.413.017c-.554.029-1.114.071-1.682.123l-.851.086-.675.074-.88.109-1.766.229c-.577.074-1.177.149-1.749.206a13.393,13.393,0,0,1-1.6.083,4.457,4.457,0,0,1-1.206-.169l-.121-.037-.11-.04c-.075-.026-.139-.054-.208-.083a3.6,3.6,0,0,1-.349-.189c-.1-.066-.2-.134-.289-.2a2.526,2.526,0,0,1-.239-.22,2.584,2.584,0,0,1-.214-.249,2.471,2.471,0,0,1-.216-.34.838.838,0,0,1-.058-.123l-.026-.069v-.017h0V29.8a2.275,2.275,0,0,1-.081-.237c-.046-.163-.11-.314-.162-.472.052-.309.089-.6.144-.88A5.708,5.708,0,0,1,9.5,27.38a6.461,6.461,0,0,1,.889-1.666,9.126,9.126,0,0,1,1.57-1.626,15.147,15.147,0,0,1,2.308-1.532c.427-.237.866-.463,1.33-.677.228-.109.456-.211.687-.314l.433-.186c.5-.214,1.013-.412,1.518-.6,1.016-.374,2.02-.706,3.041-1.012,2.02-.606,4.06-1.109,6.091-1.555s4.063-.829,6.1-1.177c4.066-.7,8.137-1.246,12.208-1.715q3.05-.352,6.106-.64l3.05-.286,1.518-.134.744-.069.352-.034h.173l.061.406.115.743.055.323.052.286c.017.089.035.174.055.26s.026.134.043.2a1.15,1.15,0,0,0,.043.154.15.15,0,0,0,.038.074l-1.443,2.043a11.974,11.974,0,0,0-2.043-1.089A22,22,0,0,0,52.2,16.7a42.573,42.573,0,0,0-5.214-1.157,96.894,96.894,0,0,0-10.965-1.069c-1.85-.091-3.708-.143-5.566-.169-.961-.026-1.887-.026-2.822-.026H24.793l-1.307.02-1.423.026-2.851.063a17.709,17.709,0,0,1-2.6-.083,5.717,5.717,0,0,1-1.688-.434L14.78,13.8l-.133-.071-.124-.069c-.038-.026-.081-.049-.115-.074a2.284,2.284,0,0,1-.2-.146c-.069-.049-.127-.1-.188-.154a3.119,3.119,0,0,1-.32-.326,3.061,3.061,0,0,1-.289-.383,3.353,3.353,0,0,1-.26-.526,3.216,3.216,0,0,1-.159-.815v-.406c-.886.109,1.206-.163.993-.137L14,10.555l.046-.286c.113-.666.222-1.326.335-1.986l.413-.191.421-.186.843-.377,1.679-.749.421-.186c.139-.063.289-.126.433-.186l.909-.357,1.815-.712.909-.357.462-.171.413-.143.964-.334.465-.166.485-.157.958-.3C28.57,2.89,31.2,2.19,33.865,1.63A72.3,72.3,0,0,1,50.142.006c1.27.037,2.265.114,3.024.2l.525.063.441.066c.133.02.254.043.361.063l.156.031L54.8.458c.289.074.355.117.271.137a1.3,1.3,0,0,1-.245,0L54.28.575c-.834-.026-2.184-.06-3.8-.02-.808.014-1.676.06-2.58.109S46.07.8,45.144.892A14.2,14.2,0,0,1,47.629.835c.623.037,1.247.074,2.5.046,0,.071-.317.151-.938.237s-1.547.186-2.776.326-2.756.312-4.579.572S37.9,2.647,35.5,3.136c2.4-.477,4.822-.829,7.26-1.069.306-.02.537-.026.7-.023a1.874,1.874,0,0,1,.335.023c.115.026.043.071-.1.129s-.375.117-.56.183-.332.131-.326.18l-.9.091-.866.1c-.577.066-1.094.149-1.544.217s-.822.137-1.082.194-.407.1-.4.12l.066.389c1.189-.2,2.984-.449,4.784-.626s3.613-.269,4.816-.286a26.313,26.313,0,0,0-4.8.392l.04.392-.92.109-.967.123-.5.063-.508.074c-.343.049-.693.094-1.042.149-1.408.214-2.885.472-4.354.769A65.272,65.272,0,0,0,26.51,7.008l.092.286c2.288-.692,5.165-1.5,8.079-2.135,1.46-.312,2.926-.589,4.328-.815.349-.057.7-.1,1.036-.154l.5-.071.5-.063.964-.12.918-.091a13.305,13.305,0,0,0-2.06.389c-.289.1-.289.171-.263.269q-2.646.383-5.266.9c-1.749.352-3.491.743-5.211,1.215l-.646.171-.643.189c-.427.126-.866.249-1.284.38-.848.286-1.7.54-2.536.857l-.629.226c-.092.037-.17.066-.248.1-.156.066-.309.131-.453.2a7.022,7.022,0,0,0-.744.4c.375-.154.747-.306,1.128-.443.1-.037.188-.074.289-.106l.71-.249.843-.286.845-.286c-.387.174-.834.352-1.319.557-.245.1-.5.206-.768.312l-.1.04-.052.02H24.5l-.063.031-.1.054c-.141.074-.289.14-.421.209s-.289.134-.444.2L22.8,9.48l-.2.091h-.04a.154.154,0,0,1,0,.051.219.219,0,0,0,0,.106.23.23,0,0,0,.147.126.872.872,0,0,0,.19.046,6.992,6.992,0,0,0,.822.031h.866l2.643.006c2.487-.037,5.032-.029,7.629.051s5.24.231,7.926.5a66.868,66.868,0,0,1,8.16,1.263c.687.154,1.376.326,2.066.523s1.382.412,2.075.663a22.369,22.369,0,0,1,2.069.857,14.34,14.34,0,0,1,2.04,1.175l1.174.815-.326.8c-1.154,2.829-1.134,1.335-1.336,1.852l-.182.054-.084.02h-.176l-.144.017-.216.026-.39.037-.744.066-1.472.126-2.932.257c-1.951.18-3.9.374-5.849.589-3.89.429-7.756.935-11.542,1.56A107.291,107.291,0,0,0,23.927,23.57a46.14,46.14,0,0,0-5.073,1.7l-.577.251-.136.063-.058.031a2.282,2.282,0,0,0-.219.123,1.7,1.7,0,0,0-.358.286.662.662,0,0,0-.19.323.416.416,0,0,0,0,.06c0,.017,0,.043.02.054a.358.358,0,0,0,.156,0,1.417,1.417,0,0,0,.289-.046l.5-.1h.139l.912-.114c.609-.063,1.223-.117,1.847-.154.312-.02.626-.037.944-.049h.424l.418-.023c.577-.031,1.154-.071,1.731-.109,2.36-.16,4.761-.309,7.17-.409S36.7,25.3,39.14,25.3s4.882.074,7.335.229,4.905.4,7.381.775a51.509,51.509,0,0,1,7.375,1.635,33.8,33.8,0,0,1,3.639,1.34c.289.131.6.286.9.412l.444.223.115.057.084.043.092.049.384.217.768.434c.251.151.482.314.724.469.493.309.918.649,1.365.977.063.04.136.08.193.12l.107.146.214.286L70.47,33l.055.071.026.037a.171.171,0,0,1,0,.034l.04.134.164.546.02.069v.017a.525.525,0,0,0,.017.151,3.045,3.045,0,0,1,0,.363,3.561,3.561,0,0,1-.338,1.378,4.513,4.513,0,0,1-.805,1.166,6.789,6.789,0,0,1-2.784,1.666c-.138.054-.289.091-.436.134s-.289.086-.441.123c-.306.066-.606.137-.912.194l-.384.06c-.089.017-.188.026-.289.04-.188.023-.384.049-.548.06-.7.069-1.316.106-1.945.154s-1.235.091-1.847.143q-1.83.154-3.633.383a102.778,102.778,0,0,0-14.168,2.889c-.029-.1.514-.369.773-.552s.234-.286-.932-.017l-1.636.4c-.514.123-.987.254-1.443.363l-1.244.312-1.065.286c-1.313.32-2.193.532-2.793.637-1.2.209-1.264.026-1.33-.16A3.6,3.6,0,0,1,33.6,43.65l1.01-.352.548-.186.548-.174c1.443-.463,2.6-.823,1.408-.554.43-.14.886-.272,1.348-.412l1.425-.429c.97-.286,1.965-.572,2.949-.829.493-.131.978-.271,1.457-.389l1.4-.357c.45-.114.892-.214,1.307-.314s.811-.2,1.177-.286c1.472-.34,2.507-.572,2.721-.637.11-.04,0-.043-.335,0s-.949.129-1.841.286c-.289.04-.716.1-1.206.2s-1.068.214-1.7.352-1.307.309-2.02.48-1.443.369-2.17.572l-2.1.592c-.7.2-1.371.4-1.991.572s-1.183.343-1.668.474" transform="translate(0 0)" fill="#292f36"/>
  </g>
</svg>
